{
	"asset":{
		"generator":"Khronos glTF Blender I/O v3.6.27",
		"version":"2.0"
	},
	"scene":0,
	"scenes":[
		{
			"name":"Scene",
			"nodes":[
				0
			]
		}
	],
	"nodes":[
		{
			"mesh":0,
			"name":"brain",
			"translation":[
				1.8375473022460938,
				6.91117000579834,
				2.7014503479003906
			]
		}
	],
	"meshes":[
		{
			"name":"BRAIN",
			"primitives":[
				{
					"attributes":{
						"POSITION":0,
						"NORMAL":1,
						"TEXCOORD_0":2
					},
					"indices":3
				}
			]
		}
	],
	"accessors":[
		{
			"bufferView":0,
			"componentType":5126,
			"count":4920,
			"max":[
				131.79714965820312,
				125.7579116821289,
				170.83181762695312
			],
			"min":[
				-129.8987579345703,
				-152.07066345214844,
				-159.07785034179688
			],
			"type":"VEC3"
		},
		{
			"bufferView":1,
			"componentType":5126,
			"count":4920,
			"type":"VEC3"
		},
		{
			"bufferView":2,
			"componentType":5126,
			"count":4920,
			"type":"VEC2"
		},
		{
			"bufferView":3,
			"componentType":5123,
			"count":7668,
			"type":"SCALAR"
		}
	],
	"bufferViews":[
		{
			"buffer":0,
			"byteLength":59040,
			"byteOffset":0,
			"target":34962
		},
		{
			"buffer":0,
			"byteLength":59040,
			"byteOffset":59040,
			"target":34962
		},
		{
			"buffer":0,
			"byteLength":39360,
			"byteOffset":118080,
			"target":34962
		},
		{
			"buffer":0,
			"byteLength":15336,
			"byteOffset":157440,
			"target":34963
		}
	],
	"buffers":[
		{
			"byteLength":172776,
			"uri":"data:application/octet-stream;base64,"
		}
	]
}
