<svg width="128" height="100" viewBox="0 0 128 100" fill="none" xmlns="http://www.w3.org/2000/svg">
    <path d="M87 49.5C87 65.2401 74.2401 78 58.5 78C42.7599 78 30 65.2401 30 49.5C30 33.7599 42.7599 21 58.5 21C74.2401 21 87 33.7599 87 49.5ZM38.55 49.5C38.55 60.5181 47.4819 69.45 58.5 69.45C69.5181 69.45 78.45 60.5181 78.45 49.5C78.45 38.4819 69.5181 29.55 58.5 29.55C47.4819 29.55 38.55 38.4819 38.55 49.5Z" fill="#343434"/>
    <path d="M58.5 73.725C58.5 76.086 56.5754 78.0328 54.2409 77.68C49.4995 76.9634 44.9911 75.0577 41.1503 72.1106C36.1729 68.2913 32.5949 62.9364 30.9711 56.8763C29.3473 50.8163 29.7685 44.3898 32.1694 38.5935C34.0221 34.1208 36.9736 30.2163 40.7215 27.225C42.5668 25.7521 45.207 26.4758 46.3875 28.5205C47.568 30.5652 46.8259 33.1508 45.0791 34.7392C42.9171 36.7049 41.2001 39.1338 40.0686 41.8655C38.388 45.9228 38.0931 50.4214 39.2298 54.6634C40.3664 58.9055 42.8711 62.6539 46.3552 65.3274C48.7009 67.1273 51.4024 68.3723 54.2575 68.9937C56.5646 69.4958 58.5 71.364 58.5 73.725Z" fill="white"/>
    <path d="M91.65 9.03V3.97L92.62 3H95.5L96.47 3.97V4.83H95.51V4.28L95.06 3.84H93.06L92.61 4.28V6.41L93.35 5.68H95.54L96.51 6.65V9.03L95.54 10H92.62L91.65 9.03ZM95.1 9.16L95.55 8.72V6.96L95.1 6.52H93.53L92.61 7.44V8.72L93.06 9.16H95.1ZM97.7145 8.95V4.05L98.7645 3H101.724L102.774 4.05V8.95L101.724 10H98.7645L97.7145 8.95ZM101.284 9.16L101.814 8.63V4.37L101.284 3.84H99.2045L98.6745 4.37V8.63L99.2045 9.16H101.284ZM103.922 5.98V3.7L104.622 3H106.212L106.912 3.7V5.98L106.212 6.68H104.622L103.922 5.98ZM109.082 3H110.062L106.212 10H105.232L109.082 3ZM105.812 5.96L106.092 5.69V3.99L105.812 3.72H105.022L104.752 3.99V5.69L105.022 5.96H105.812ZM108.352 9.3V7.02L109.052 6.32H110.642L111.342 7.02V9.3L110.642 10H109.052L108.352 9.3ZM110.242 9.28L110.522 9.01V7.31L110.242 7.04H109.452L109.182 7.31V9.01L109.452 9.28H110.242ZM114.969 9.03V8.27H115.919V8.72L116.349 9.16H118.639L119.079 8.71V7.27L118.639 6.84H115.959L114.989 5.86V3.97L115.959 3H118.979L119.949 3.97V4.74H119.009V4.28L118.569 3.84H116.379L115.939 4.28V5.56L116.379 6H119.059L120.029 6.97V9.01L119.039 10H115.939L114.969 9.03ZM120.914 9.66V9.16L121.254 8.82H121.784L122.124 9.16V9.66L121.784 10H121.254L120.914 9.66ZM123.907 3.83H121.797V3H126.977V3.83H124.867V10H123.907V3.83Z" fill="#D9D9D9"/>
    <path d="M3.62 95.61H0.2V94.37L3.23 90H4.58V94.77H5.43V95.61H4.58V97H3.62V95.61ZM3.64 94.8V90.93H3.59L1.14 94.49V94.8H3.64ZM9.36477 91.12V90.84H5.78477V90H10.3448V91.17L7.58477 97H6.56477L9.36477 91.12ZM11.1934 92.98V90.7L11.8934 90H13.4834L14.1834 90.7V92.98L13.4834 93.68H11.8934L11.1934 92.98ZM16.3534 90H17.3334L13.4834 97H12.5034L16.3534 90ZM13.0834 92.96L13.3634 92.69V90.99L13.0834 90.72H12.2934L12.0234 90.99V92.69L12.2934 92.96H13.0834ZM15.6234 96.3V94.02L16.3234 93.32H17.9134L18.6134 94.02V96.3L17.9134 97H16.3234L15.6234 96.3ZM17.5134 96.28L17.7934 96.01V94.31L17.5134 94.04H16.7234L16.4534 94.31V96.01L16.7234 96.28H17.5134ZM22.3906 90H23.3506V96.17H26.8906V97H22.3906V90ZM27.5698 96.66V96.16L27.9098 95.82H28.4398L28.7798 96.16V96.66L28.4398 97H27.9098L27.5698 96.66ZM30.5631 90.83H28.4531V90H33.6331V90.83H31.5231V97H30.5631V90.83Z" fill="#D9D9D9"/>
    <line x1="34.3536" y1="74.3536" x2="23.3536" y2="85.3536" stroke="white"/>
    <line x1="93.3536" y1="15.3536" x2="82.3536" y2="26.3536" stroke="white"/>
</svg>
