<svg width="110" height="53" viewBox="0 0 110 53" fill="none" xmlns="http://www.w3.org/2000/svg">
    <rect opacity="0.3" width="5" height="53" rx="2.5" fill="#181818" fill-opacity="0.3"/>
    <rect y="9" width="5" height="44" rx="2.5" fill="#949494"/>
    <rect opacity="0.3" x="15" width="5" height="53" rx="2.5" fill="#181818" fill-opacity="0.3"/>
    <rect x="15" y="6" width="5" height="47" rx="2.5" fill="#949494"/>
    <rect opacity="0.3" x="30" width="5" height="53" rx="2.5" fill="#181818" fill-opacity="0.3"/>
    <rect x="30" y="36" width="5" height="17" rx="2.5" fill="#949494"/>
    <rect opacity="0.3" x="45" width="5" height="53" rx="2.5" fill="#181818" fill-opacity="0.3"/>
    <rect x="45" y="34" width="5" height="19" rx="2.5" fill="#949494"/>
    <rect opacity="0.3" x="60" width="5" height="53" rx="2.5" fill="#181818" fill-opacity="0.3"/>
    <rect x="60" y="24" width="5" height="29" rx="2.5" fill="#949494"/>
    <rect opacity="0.3" x="75" width="5" height="53" rx="2.5" fill="#181818" fill-opacity="0.3"/>
    <rect x="75" y="29" width="5" height="24" rx="2.5" fill="#949494"/>
    <rect opacity="0.3" x="90" width="5" height="53" rx="2.5" fill="#181818" fill-opacity="0.3"/>
    <rect x="90" y="17" width="5" height="36" rx="2.5" fill="#949494"/>
    <rect opacity="0.3" x="105" width="5" height="53" rx="2.5" fill="#181818" fill-opacity="0.3"/>
    <rect x="105" y="20.1914" width="5" height="32.8095" rx="2.5" fill="#949494"/>
</svg>
