<svg width="222" height="196" viewBox="0 0 222 196" fill="none" xmlns="http://www.w3.org/2000/svg">
    <circle cx="107.998" cy="95" r="13.416" stroke="#666666"/>
    <circle cx="108" cy="95.0004" r="26.1723" stroke="#666666"/>
    <circle cx="108" cy="95.0001" r="40.6681" stroke="#666666"/>
    <circle cx="107.998" cy="95.0003" r="54.0042" stroke="#666666"/>
    <circle cx="108" cy="95" r="68.5" stroke="#666666"/>
    <path d="M67.1934 94.9991L106.887 40.4668L176.258 94.9991L108 108.354L67.1934 94.9991Z" fill="#02006F" fill-opacity="0.3"/>
    <path d="M121.727 94.6299L108.001 68.6621L39.7427 94.6299L108.001 138.404L121.727 94.6299Z" fill="#00B7C2" fill-opacity="0.3"/>
    <path d="M133.598 94.629L108.001 54.5645L67.5654 94.629L108.001 138.403L133.598 94.629Z" fill="#097300" fill-opacity="0.3"/>
    <path d="M176.629 94.629L108 26V94.629H176.629Z" fill="#CD0000" fill-opacity="0.3"/>
    <line x1="107.5" y1="179" x2="107.5" y2="17" stroke="#666666"/>
    <line x1="27" y1="94.5" x2="189" y2="94.5" stroke="#666666"/>
    <path d="M73.66 3H74.62L77.14 10H76.15L75.53 8.22H72.76L72.14 10H71.15L73.66 3ZM75.28 7.41L74.15 4.14H74.13L73.02 7.41H75.28ZM77.8438 8.87V3H78.8038V8.54L79.4238 9.16H81.6038L82.2238 8.54V3H83.1838V8.87L82.0538 10H78.9738L77.8438 8.87ZM86.2897 3.83H84.1797V3H89.3597V3.83H87.2497V10H86.2897V3.83ZM90.3633 3H91.3233V6.09H94.7233V3H95.6833V10H94.7233V6.93H91.3233V10H90.3633V3ZM97.0797 8.88V4.12L98.1997 3H101.5L102.62 4.12V8.88L101.5 10H98.1997L97.0797 8.88ZM101.04 9.16L101.66 8.54V4.46L101.04 3.84H98.6597L98.0397 4.46V8.54L98.6597 9.16H101.04ZM109.156 7.8V10H108.196V8.04L107.366 7.15H104.976V10H104.016V3H108.146L109.116 3.97V6.15L108.346 6.92L109.156 7.8ZM104.976 6.33H107.716L108.166 5.89V4.26L107.716 3.82H104.976V6.33ZM110.657 3H111.617V10H110.657V3ZM114.776 3.83H112.666V3H117.846V3.83H115.736V10H114.776V3.83ZM119.861 3H120.821L123.341 10H122.351L121.731 8.22H118.961L118.341 10H117.351L119.861 3ZM121.481 7.41L120.351 4.14H120.331L119.221 7.41H121.481ZM129.38 7.8V10H128.42V8.04L127.59 7.15H125.2V10H124.24V3H128.37L129.34 3.97V6.15L128.57 6.92L129.38 7.8ZM125.2 6.33H127.94L128.39 5.89V4.26L127.94 3.82H125.2V6.33ZM130.882 3H131.842V10H130.882V3ZM135.301 3H136.261L138.781 10H137.791L137.171 8.22H134.401L133.781 10H132.791L135.301 3ZM136.921 7.41L135.791 4.14H135.771L134.661 7.41H136.921ZM139.68 3H140.58L144.05 8.42H144.07V3H144.99V10H144.09L140.62 4.58H140.6V10H139.68V3Z" fill="#636363"/>
    <path d="M78.75 186H79.71V192.17H83.25V193H78.75V186ZM84.2492 186H85.2092V193H84.2492V186ZM86.7578 186H90.8378L91.7878 186.95V188.89L91.3378 189.35L92.0978 190.12V191.99L91.0878 193H86.7578V186ZM90.3978 189.08L90.8478 188.63V187.26L90.3978 186.82H87.6978V189.08H90.3978ZM90.6278 192.18L91.1578 191.66V190.4L90.6278 189.87H87.6978V192.18H90.6278ZM93.3008 186H98.0008V186.84H94.2608V189.07H97.7108V189.9H94.2608V192.16H98.0008V193H93.3008V186ZM104.339 190.8V193H103.379V191.04L102.549 190.15H100.159V193H99.1992V186H103.329L104.299 186.97V189.15L103.529 189.92L104.339 190.8ZM100.159 189.33H102.899L103.349 188.89V187.26L102.899 186.82H100.159V189.33ZM107.255 186.83H105.145V186H110.325V186.83H108.215V193H107.255V186.83ZM112.34 186H113.3L115.82 193H114.83L114.21 191.22H111.44L110.82 193H109.83L112.34 186ZM113.96 190.41L112.83 187.14H112.81L111.7 190.41H113.96ZM121.859 190.8V193H120.899V191.04L120.069 190.15H117.679V193H116.719V186H120.849L121.819 186.97V189.15L121.049 189.92L121.859 190.8ZM117.679 189.33H120.419L120.869 188.89V187.26L120.419 186.82H117.679V189.33ZM123.361 186H124.321V193H123.361V186ZM127.779 186H128.739L131.259 193H130.269L129.649 191.22H126.879L126.259 193H125.269L127.779 186ZM129.399 190.41L128.269 187.14H128.249L127.139 190.41H129.399ZM132.158 186H133.058L136.528 191.42H136.548V186H137.468V193H136.568L133.098 187.58H133.078V193H132.158V186Z" fill="#636363"/>
    <path d="M0.75 92H1.71V98.17H5.25V99H0.75V92ZM6.19922 92H10.8992V92.84H7.15922V95.07H10.6092V95.9H7.15922V98.16H10.8992V99H6.19922V92ZM12.0977 92H16.6977V92.84H13.0577V95.16H16.2177V96H13.0577V99H12.0977V92ZM19.3034 92.83H17.1934V92H22.3734V92.83H20.2634V99H19.3034V92.83Z" fill="#636363"/>
    <path d="M198.89 96.8V99H197.93V97.04L197.1 96.15H194.71V99H193.75V92H197.88L198.85 92.97V95.15L198.08 95.92L198.89 96.8ZM194.71 95.33H197.45L197.9 94.89V93.26L197.45 92.82H194.71V95.33ZM200.392 92H201.352V99H200.392V92ZM202.8 97.88V93.12L203.92 92H207.12L208.2 93.08V93.87H207.24V93.42L206.66 92.84H204.38L203.76 93.46V97.54L204.38 98.16H206.64L207.25 97.55V96.11H205.7V95.27H208.2V97.88L207.08 99H203.92L202.8 97.88ZM209.502 92H210.462V95.09H213.862V92H214.822V99H213.862V95.93H210.462V99H209.502V92ZM217.928 92.83H215.818V92H220.998V92.83H218.888V99H217.928V92.83Z" fill="#636363"/>
</svg>
