<svg width="293" height="145" viewBox="0 0 293 145" fill="none" xmlns="http://www.w3.org/2000/svg">
    <path d="M19.16 3H20.12L22.64 10H21.65L21.03 8.22H18.26L17.64 10H16.65L19.16 3ZM20.78 7.41L19.65 4.14H19.63L18.52 7.41H20.78Z" fill="#D9D9D9"/>
    <rect y="109" width="40" height="8" rx="4" fill="#D9D9D9"/>
    <rect y="97" width="40" height="8" rx="4" fill="#D9D9D9"/>
    <rect y="85" width="40" height="8" rx="4" fill="#D9D9D9"/>
    <rect y="73" width="40" height="8" rx="4" fill="#D9D9D9"/>
    <rect x="0.35" y="61.35" width="39.3" height="7.3" rx="3.65" stroke="#666666" stroke-width="0.7"/>
    <rect x="0.35" y="49.35" width="39.3" height="7.3" rx="3.65" stroke="#666666" stroke-width="0.7"/>
    <rect x="0.35" y="37.35" width="39.3" height="7.3" rx="3.65" stroke="#666666" stroke-width="0.7"/>
    <rect x="0.35" y="25.35" width="39.3" height="7.3" rx="3.65" stroke="#666666" stroke-width="0.7"/>
    <path d="M11.55 138.03V137.13H12.51V137.72L12.95 138.16H14.95L15.39 137.72V135.86L14.95 135.43H11.65V132H16.21V132.83H12.59V134.59H15.37L16.35 135.57V138.03L15.38 139H12.52L11.55 138.03ZM18.7984 133L17.2484 133.8V132.92L18.9284 132H19.7584V139H18.7984V133ZM21.0605 134.98V132.7L21.7605 132H23.3505L24.0505 132.7V134.98L23.3505 135.68H21.7605L21.0605 134.98ZM26.2205 132H27.2005L23.3505 139H22.3705L26.2205 132ZM22.9505 134.96L23.2305 134.69V132.99L22.9505 132.72H22.1605L21.8905 132.99V134.69L22.1605 134.96H22.9505ZM25.4905 138.3V136.02L26.1905 135.32H27.7805L28.4805 136.02V138.3L27.7805 139H26.1905L25.4905 138.3ZM27.3805 138.28L27.6605 138.01V136.31L27.3805 136.04H26.5905L26.3205 136.31V138.01L26.5905 138.28H27.3805Z" fill="#D9D9D9"/>
    <path d="M80.5 3H84.58L85.53 3.95V5.89L85.08 6.35L85.84 7.12V8.99L84.83 10H80.5V3ZM84.14 6.08L84.59 5.63V4.26L84.14 3.82H81.44V6.08H84.14ZM84.37 9.18L84.9 8.66V7.4L84.37 6.87H81.44V9.18H84.37Z" fill="#D9D9D9"/>
    <rect x="63.25" y="109" width="40" height="8" rx="4" fill="#D9D9D9"/>
    <rect x="63.25" y="97" width="40" height="8" rx="4" fill="#D9D9D9"/>
    <rect x="63.25" y="85" width="40" height="8" rx="4" fill="#D9D9D9"/>
    <rect x="63.25" y="73" width="40" height="8" rx="4" fill="#D9D9D9"/>
    <rect x="63.25" y="61" width="40" height="8" rx="4" fill="#D9D9D9"/>
    <rect x="63.25" y="49" width="40" height="8" rx="4" fill="#D9D9D9"/>
    <rect x="63.6" y="37.35" width="39.3" height="7.3" rx="3.65" stroke="#666666" stroke-width="0.7"/>
    <rect x="63.6" y="25.35" width="39.3" height="7.3" rx="3.65" stroke="#666666" stroke-width="0.7"/>
    <path d="M73.35 138.03V136.02L73.98 135.39L73.45 134.86V132.97L74.42 132H77.3L78.27 132.97V134.86L77.74 135.39L78.37 136.02V138.03L77.4 139H74.32L73.35 138.03ZM76.86 135.03L77.31 134.59V133.28L76.86 132.84H74.86L74.41 133.28V134.59L74.86 135.03H76.86ZM76.96 138.16L77.41 137.72V136.3L76.96 135.85H74.76L74.31 136.3V137.72L74.76 138.16H76.96ZM79.6207 137.95V133.05L80.6707 132H83.6307L84.6807 133.05V137.95L83.6307 139H80.6707L79.6207 137.95ZM83.1907 138.16L83.7207 137.63V133.37L83.1907 132.84H81.1107L80.5807 133.37V137.63L81.1107 138.16H83.1907ZM85.8281 134.98V132.7L86.5281 132H88.1181L88.8181 132.7V134.98L88.1181 135.68H86.5281L85.8281 134.98ZM90.9881 132H91.9681L88.1181 139H87.1381L90.9881 132ZM87.7181 134.96L87.9981 134.69V132.99L87.7181 132.72H86.9281L86.6581 132.99V134.69L86.9281 134.96H87.7181ZM90.2581 138.3V136.02L90.9581 135.32H92.5481L93.2481 136.02V138.3L92.5481 139H90.9581L90.2581 138.3ZM92.1481 138.28L92.4281 138.01V136.31L92.1481 136.04H91.3581L91.0881 136.31V138.01L91.3581 138.28H92.1481Z" fill="#D9D9D9"/>
    <path d="M143.65 8.88V4.12L144.77 3H147.91L148.99 4.08V4.87H148.03V4.42L147.45 3.84H145.23L144.61 4.46V8.54L145.23 9.16H147.45L148.03 8.58V8.13H148.99V8.92L147.91 10H144.77L143.65 8.88Z" fill="#D9D9D9"/>
    <rect x="126.85" y="109.35" width="39.3" height="7.3" rx="3.65" fill="#E95151" stroke="#666666" stroke-width="0.7"/>
    <rect x="126.5" y="97" width="40" height="8" rx="4" fill="#E95151"/>
    <rect x="126.5" y="85" width="40" height="8" rx="4" fill="#E95151"/>
    <rect x="126.5" y="73" width="40" height="8" rx="4" fill="#E95151"/>
    <rect x="126.5" y="61" width="40" height="8" rx="4" fill="#E95151"/>
    <rect x="126.5" y="49" width="40" height="8" rx="4" fill="#E95151"/>
    <rect x="126.5" y="37" width="40" height="8" rx="4" fill="#E95151"/>
    <rect x="126.5" y="25" width="40" height="8" rx="4" fill="#E95151"/>
    <path d="M136.7 138.03V137.21H137.66V137.72L138.11 138.16H140.05L140.5 137.72V135.7L139.84 136.36H137.57L136.6 135.39V132.97L137.57 132H140.49L141.46 132.97V138.03L140.49 139H137.67L136.7 138.03ZM139.68 135.52L140.5 134.7V133.28L140.05 132.84H138.01L137.56 133.28V135.08L138.01 135.52H139.68ZM142.663 138.03V137.13H143.623V137.72L144.063 138.16H146.063L146.503 137.72V135.86L146.063 135.43H142.763V132H147.323V132.83H143.703V134.59H146.483L147.463 135.57V138.03L146.493 139H143.633L142.663 138.03ZM148.512 134.98V132.7L149.212 132H150.802L151.502 132.7V134.98L150.802 135.68H149.212L148.512 134.98ZM153.672 132H154.652L150.802 139H149.822L153.672 132ZM150.402 134.96L150.682 134.69V132.99L150.402 132.72H149.612L149.342 132.99V134.69L149.612 134.96H150.402ZM152.942 138.3V136.02L153.642 135.32H155.232L155.932 136.02V138.3L155.232 139H153.642L152.942 138.3ZM154.832 138.28L155.112 138.01V136.31L154.832 136.04H154.042L153.772 136.31V138.01L154.042 138.28H154.832Z" fill="#E95151"/>
    <path d="M207 3H211.19L212.32 4.13V8.87L211.19 10H207V3ZM210.74 9.16L211.36 8.54V4.46L210.74 3.84H207.96V9.16H210.74Z" fill="#D9D9D9"/>
    <rect x="189.75" y="109" width="40" height="8" rx="4" fill="#D9D9D9"/>
    <rect x="189.75" y="97" width="40" height="8" rx="4" fill="#D9D9D9"/>
    <rect x="189.75" y="85" width="40" height="8" rx="4" fill="#D9D9D9"/>
    <rect x="189.75" y="73" width="40" height="8" rx="4" fill="#D9D9D9"/>
    <rect x="190.1" y="61.35" width="39.3" height="7.3" rx="3.65" stroke="#666666" stroke-width="0.7"/>
    <rect x="190.1" y="49.35" width="39.3" height="7.3" rx="3.65" stroke="#666666" stroke-width="0.7"/>
    <rect x="190.1" y="37.35" width="39.3" height="7.3" rx="3.65" stroke="#666666" stroke-width="0.7"/>
    <rect x="190.1" y="25.35" width="39.3" height="7.3" rx="3.65" stroke="#666666" stroke-width="0.7"/>
    <path d="M200.3 138.03V137.13H201.26V137.72L201.7 138.16H203.7L204.14 137.72V135.86L203.7 135.43H200.4V132H204.96V132.83H201.34V134.59H204.12L205.1 135.57V138.03L204.13 139H201.27L200.3 138.03ZM209.268 137.61H205.848V136.37L208.878 132H210.228V136.77H211.078V137.61H210.228V139H209.268V137.61ZM209.288 136.8V132.93H209.238L206.788 136.49V136.8H209.288ZM211.783 134.98V132.7L212.483 132H214.073L214.773 132.7V134.98L214.073 135.68H212.483L211.783 134.98ZM216.943 132H217.923L214.073 139H213.093L216.943 132ZM213.673 134.96L213.953 134.69V132.99L213.673 132.72H212.883L212.613 132.99V134.69L212.883 134.96H213.673ZM216.213 138.3V136.02L216.913 135.32H218.503L219.203 136.02V138.3L218.503 139H216.913L216.213 138.3ZM218.103 138.28L218.383 138.01V136.31L218.103 136.04H217.313L217.043 136.31V138.01L217.313 138.28H218.103Z" fill="#D9D9D9"/>
    <path d="M270.75 3H275.45V3.84H271.71V6.07H275.16V6.9H271.71V9.16H275.45V10H270.75V3Z" fill="#D9D9D9"/>
    <rect x="253" y="109" width="40" height="8" rx="4" fill="#D9D9D9"/>
    <rect x="253" y="97" width="40" height="8" rx="4" fill="#D9D9D9"/>
    <rect x="253" y="85" width="40" height="8" rx="4" fill="#D9D9D9"/>
    <rect x="253" y="73" width="40" height="8" rx="4" fill="#D9D9D9"/>
    <rect x="253" y="61" width="40" height="8" rx="4" fill="#D9D9D9"/>
    <rect x="253" y="49" width="40" height="8" rx="4" fill="#D9D9D9"/>
    <rect x="253.35" y="37.35" width="39.3" height="7.3" rx="3.65" stroke="#666666" stroke-width="0.7"/>
    <rect x="253.35" y="25.35" width="39.3" height="7.3" rx="3.65" stroke="#666666" stroke-width="0.7"/>
    <path d="M263.1 138.03V136.02L263.73 135.39L263.2 134.86V132.97L264.17 132H267.05L268.02 132.97V134.86L267.49 135.39L268.12 136.02V138.03L267.15 139H264.07L263.1 138.03ZM266.61 135.03L267.06 134.59V133.28L266.61 132.84H264.61L264.16 133.28V134.59L264.61 135.03H266.61ZM266.71 138.16L267.16 137.72V136.3L266.71 135.85H264.51L264.06 136.3V137.72L264.51 138.16H266.71ZM269.371 137.95V133.05L270.421 132H273.381L274.431 133.05V137.95L273.381 139H270.421L269.371 137.95ZM272.941 138.16L273.471 137.63V133.37L272.941 132.84H270.861L270.331 133.37V137.63L270.861 138.16H272.941ZM275.578 134.98V132.7L276.278 132H277.868L278.568 132.7V134.98L277.868 135.68H276.278L275.578 134.98ZM280.738 132H281.718L277.868 139H276.888L280.738 132ZM277.468 134.96L277.748 134.69V132.99L277.468 132.72H276.678L276.408 132.99V134.69L276.678 134.96H277.468ZM280.008 138.3V136.02L280.708 135.32H282.298L282.998 136.02V138.3L282.298 139H280.708L280.008 138.3ZM281.898 138.28L282.178 138.01V136.31L281.898 136.04H281.108L280.838 136.31V138.01L281.108 138.28H281.898Z" fill="#D9D9D9"/>
</svg>
